HIERARCHY
ROOT hips
{
  OFFSET 4.514983404067499e-9 10.105397940993303 1.318478203070619
  CHANNELS 6 Xposition Yposition Zposition Yrotation Xrotation Zrotation
  JOINT spine
  {
    OFFSET -3.891297943093837e-9 0.5743022203102706 0
    CHANNELS 3 Yrotation Xrotation Zrotation
    JOINT chest
    {
      OFFSET 0 1.2550312016247926 0
      CHANNELS 3 Yrotation Xrotation Zrotation
      JOINT upperChest
      {
        OFFSET 0 1.2059856050120283 0
        CHANNELS 3 Yrotation Xrotation Zrotation
        JOINT neck
        {
          OFFSET 0 1.5290392449770056 0
          CHANNELS 3 Yrotation Xrotation Zrotation
          JOINT head
          {
            OFFSET 0 0.8186276690878121 0
            CHANNELS 3 Yrotation Xrotation Zrotation
            JOINT leftEye
            {
              OFFSET 0.4540883942785781 -0.2684596961258452 0.6133497327236779
              CHANNELS 3 Yrotation Xrotation Zrotation
              End Site
              {
                OFFSET 0.4540883942785781 -0.2684596961258452 0.6133497327236779
              }
            }
            JOINT rightEye
            {
              OFFSET -0.4540889229417456 -0.26846010916843954 0.6133525398671689
              CHANNELS 3 Yrotation Xrotation Zrotation
              End Site
              {
                OFFSET -0.4540889229417456 -0.26846010916843954 0.6133525398671689
              }
            }
          }
        }
        JOINT leftShoulder
        {
          OFFSET 1.1700010731725468 -0.4176065950681176 0
          CHANNELS 3 Yrotation Xrotation Zrotation
          JOINT leftUpperArm
          {
            OFFSET 1.1803911524554955 0 0
            CHANNELS 3 Yrotation Xrotation Zrotation
            JOINT leftLowerArm
            {
              OFFSET 2.4406171707858904 0 0
              CHANNELS 3 Yrotation Xrotation Zrotation
              JOINT leftHand
              {
                OFFSET 2.3832177068873874 0 0
                CHANNELS 3 Yrotation Xrotation Zrotation
                JOINT leftIndexProximal
                {
                  OFFSET 0.7310175006235151 0.08192774217833776 0.20404791572985242
                  CHANNELS 3 Yrotation Xrotation Zrotation
                  JOINT leftIndexIntermediate
                  {
                    OFFSET 0.3688845439429529 -0.010662034455094949 -0.014226011560394963
                    CHANNELS 3 Yrotation Xrotation Zrotation
                    JOINT leftIndexDistal
                    {
                      OFFSET 0.2271119941018298 -0.007897656478952575 -0.007580683836364496
                      CHANNELS 3 Yrotation Xrotation Zrotation
                      End Site
                      {
                        OFFSET 0.2271119941018298 -0.007897656478952575 -0.007580683836364496
                      }
                    }
                  }
                }
                JOINT leftLittleProximal
                {
                  OFFSET 0.678269929308182 0.08192620621401336 -0.323876516389586
                  CHANNELS 3 Yrotation Xrotation Zrotation
                  JOINT leftLittleIntermediate
                  {
                    OFFSET 0.34904545821382604 -0.0000017106393073174075 8.629360392919949e-9
                    CHANNELS 3 Yrotation Xrotation Zrotation
                    JOINT leftLittleDistal
                    {
                      OFFSET 0.2011060672849896 0.0031247840072243793 0.0038660318003989197
                      CHANNELS 3 Yrotation Xrotation Zrotation
                      End Site
                      {
                        OFFSET 0.2011060672849896 0.0031247840072243793 0.0038660318003989197
                      }
                    }
                  }
                }
                JOINT leftMiddleProximal
                {
                  OFFSET 0.7368181082522638 0.0819260272939426 0.02272335773438093
                  CHANNELS 3 Yrotation Xrotation Zrotation
                  JOINT leftMiddleIntermediate
                  {
                    OFFSET 0.41136739116025356 -0.0000015892429323649537 5.27860346960507e-8
                    CHANNELS 3 Yrotation Xrotation Zrotation
                    JOINT leftMiddleDistal
                    {
                      OFFSET 0.25378150303820757 -0.0000015332469289752737 1.3442958385345705e-8
                      CHANNELS 3 Yrotation Xrotation Zrotation
                      End Site
                      {
                        OFFSET 0.25378150303820757 -0.0000015332469289752737 1.3442958385345705e-8
                      }
                    }
                  }
                }
                JOINT leftRingProximal
                {
                  OFFSET 0.7284256823094712 0.08192611199801392 -0.1508405069143483
                  CHANNELS 3 Yrotation Xrotation Zrotation
                  JOINT leftRingIntermediate
                  {
                    OFFSET 0.381593741461262 -0.0000016975471202052006 6.592486757883709e-8
                    CHANNELS 3 Yrotation Xrotation Zrotation
                    JOINT leftRingDistal
                    {
                      OFFSET 0.22014536669820362 -0.0027420652959939673 -0.005037497035641991
                      CHANNELS 3 Yrotation Xrotation Zrotation
                      End Site
                      {
                        OFFSET 0.22014536669820362 -0.0027420652959939673 -0.005037497035641991
                      }
                    }
                  }
                }
                JOINT leftThumbProximal
                {
                  OFFSET 0.10842212958334652 -0.16573713992498873 -0.07779936144556289
                  CHANNELS 3 Yrotation Xrotation Zrotation
                  JOINT leftThumbIntermediate
                  {
                    OFFSET 0.40720553822379024 -0.01751267955631075 0.31852684427382305
                    CHANNELS 3 Yrotation Xrotation Zrotation
                    JOINT leftThumbDistal
                    {
                      OFFSET 0.23412859218032667 -0.01859690713588802 0.2146635043319005
                      CHANNELS 3 Yrotation Xrotation Zrotation
                      End Site
                      {
                        OFFSET 0.23412859218032667 -0.01859690713588802 0.2146635043319005
                      }
                    }
                  }
                }
              }
            }
          }
        }
        JOINT rightShoulder
        {
          OFFSET -1.1700037144859516 -0.41760703856471126 0
          CHANNELS 3 Yrotation Xrotation Zrotation
          JOINT rightUpperArm
          {
            OFFSET -1.1803910289368023 0 0
            CHANNELS 3 Yrotation Xrotation Zrotation
            JOINT rightLowerArm
            {
              OFFSET -2.440617418222133 0 0
              CHANNELS 3 Yrotation Xrotation Zrotation
              JOINT rightHand
              {
                OFFSET -2.3832181162662343 0 0
                CHANNELS 3 Yrotation Xrotation Zrotation
                JOINT rightIndexProximal
                {
                  OFFSET -0.7310168852843362 0.08192787643494381 0.20404785424302163
                  CHANNELS 3 Yrotation Xrotation Zrotation
                  JOINT rightIndexIntermediate
                  {
                    OFFSET -0.3688846010723953 -0.01066191355993129 -0.014226020535245201
                    CHANNELS 3 Yrotation Xrotation Zrotation
                    JOINT rightIndexDistal
                    {
                      OFFSET -0.22711216276130997 -0.007898902439410271 -0.007580718044857868
                      CHANNELS 3 Yrotation Xrotation Zrotation
                      End Site
                      {
                        OFFSET -0.22711216276130997 -0.007898902439410271 -0.007580718044857868
                      }
                    }
                  }
                }
                JOINT rightLittleProximal
                {
                  OFFSET -0.6782685897119165 0.08192501740206293 -0.3238766118101876
                  CHANNELS 3 Yrotation Xrotation Zrotation
                  JOINT rightLittleIntermediate
                  {
                    OFFSET -0.34904682243945895 -2.664019085329983e-7 3.792712677253007e-8
                    CHANNELS 3 Yrotation Xrotation Zrotation
                    JOINT rightLittleDistal
                    {
                      OFFSET -0.20110609302945537 0.0031260842677420797 0.0038661724369087186
                      CHANNELS 3 Yrotation Xrotation Zrotation
                      End Site
                      {
                        OFFSET -0.20110609302945537 0.0031260842677420797 0.0038661724369087186
                      }
                    }
                  }
                }
                JOINT rightMiddleProximal
                {
                  OFFSET -0.7368168209984411 0.08192485183145659 0.022723294831187846
                  CHANNELS 3 Yrotation Xrotation Zrotation
                  JOINT rightMiddleIntermediate
                  {
                    OFFSET -0.4113687575187084 -9.03141548214137e-8 4.759541079313312e-8
                    CHANNELS 3 Yrotation Xrotation Zrotation
                    JOINT rightMiddleDistal
                    {
                      OFFSET -0.2537822083525749 -9.554208624251714e-8 -1.6364827826187422e-9
                      CHANNELS 3 Yrotation Xrotation Zrotation
                      End Site
                      {
                        OFFSET -0.2537822083525749 -9.554208624251714e-8 -1.6364827826187422e-9
                      }
                    }
                  }
                }
                JOINT rightRingProximal
                {
                  OFFSET -0.7284243957721679 0.08192492753028224 -0.15084062217729294
                  CHANNELS 3 Yrotation Xrotation Zrotation
                  JOINT rightRingIntermediate
                  {
                    OFFSET -0.381595106800805 -2.5662436442530634e-7 2.929475539925619e-8
                    CHANNELS 3 Yrotation Xrotation Zrotation
                    JOINT rightRingDistal
                    {
                      OFFSET -0.22014544912608125 -0.002738002524970362 -0.0050375115645966
                      CHANNELS 3 Yrotation Xrotation Zrotation
                      End Site
                      {
                        OFFSET -0.22014544912608125 -0.002738002524970362 -0.0050375115645966
                      }
                    }
                  }
                }
                JOINT rightThumbProximal
                {
                  OFFSET -0.10842026863657162 -0.16573778435706465 -0.07779917642461898
                  CHANNELS 3 Yrotation Xrotation Zrotation
                  JOINT rightThumbIntermediate
                  {
                    OFFSET -0.40720600760521597 -0.017512298079938038 0.3185267362029824
                    CHANNELS 3 Yrotation Xrotation Zrotation
                    JOINT rightThumbDistal
                    {
                      OFFSET -0.2341289751103648 -0.018594162598156494 0.21466399510514025
                      CHANNELS 3 Yrotation Xrotation Zrotation
                      End Site
                      {
                        OFFSET -0.2341289751103648 -0.018594162598156494 0.21466399510514025
                      }
                    }
                  }
                }
              }
            }
          }
        }
      }
    }
  }
  JOINT leftUpperLeg
  {
    OFFSET -0.8565189721517369 0.4427277044191169 0
    CHANNELS 3 Yrotation Xrotation Zrotation
    JOINT leftLowerLeg
    {
      OFFSET 0 -3.918486704769693 0
      CHANNELS 3 Yrotation Xrotation Zrotation
      JOINT leftFoot
      {
        OFFSET 6.174701361744139e-7 -0.055233446196002234 4.612027801972084
        CHANNELS 3 Yrotation Xrotation Zrotation
        JOINT leftToes
        {
          OFFSET -3.4372540951010944e-7 -0.705284859504459 1.2256624571888697
          CHANNELS 3 Yrotation Xrotation Zrotation
          End Site
          {
            OFFSET -3.4372540951010944e-7 -0.705284859504459 1.2256624571888697
          }
        }
      }
    }
  }
  JOINT rightUpperLeg
  {
    OFFSET 0.8565189732197466 0.44272769569168136 0
    CHANNELS 3 Yrotation Xrotation Zrotation
    JOINT rightLowerLeg
    {
      OFFSET 0 -3.918486692649319 0
      CHANNELS 3 Yrotation Xrotation Zrotation
      JOINT rightFoot
      {
        OFFSET 6.995136552362391e-7 -0.05523244834012664 4.612028499942008
        CHANNELS 3 Yrotation Xrotation Zrotation
        JOINT rightToes
        {
          OFFSET -4.2566694985479714e-7 -0.7052846587611067 1.22566236096697
          CHANNELS 3 Yrotation Xrotation Zrotation
          End Site
          {
            OFFSET -4.2566694985479714e-7 -0.7052846587611067 1.22566236096697
          }
        }
      }
    }
  }
}
MOTION
Frames: 4
Frame Time: 0.03333333333333333
0.32798323035240173 -0.08115077149867389 -0.8705904483795166 -5.006920588428462 5.182933922268598 -0.4035726526280905 1.0228819991529596 1.5312072614988506 0.3946958116811368 4.124058615909897 6.088760486188673 1.5252550219502008 0 0 0 0.44161623086064045 -5.904288295256103 -0.6378196298844875 -5.014758749391101 2.923998134639057 -0.555703633572495 0 0 0 0 0 0 -11.471794951600895 -0.7144732723991504 -18.9627785757242 -55.35043867298661 -31.139819164510698 -16.090544892629236 -110.80181243525405 -4.246746216157385 8.08534458942214 10.800713799463526 -9.23350616784975 28.192752333124556 0.8580580733393801 4.255817333771299 -11.365861562901049 6.743373537714045 2.8987316025321426 -16.710180648250354 8.148288482878835e-7 -1.5337981956980147e-7 -0.0000015517772606458285 10.159750702005379 -4.05673023310781 -30.647269560965984 -5.817498921847831 -0.6601909184391046 -22.44599277417921 0.000010842474879785569 0.000020794444930525973 -0.000013159829666921278 5.146066336734184 1.4869371894786136 -14.345271735459965 -1.131349173157851 -0.251993358072009 -17.173414735223055 1.139979627027678e-10 6.3611093629270335e-15 -1.43444452663829e-12 9.539314761659131 1.4095429597253137 -21.639744123148542 -2.668237698960667 -0.42072633167344636 -22.22459020974942 -0.00000412555579597696 -0.000009862134494984367 -7.112917174090152e-7 1.298788377790052 7.243847689721141 -1.7006038391348621 4.5444383689939984 1.8218174630348138 2.0834261691213984 0.0000029659611813277985 0.0000036354096231252345 3.6447062572369624e-7 13.61816169601538 -0.6574686946452722 14.47911060579389 46.28819807971137 -34.85047232054064 17.08168414827134 109.76825222720531 -4.293499297674733 -7.993141346757179 4.989047466075787 -23.091137701242502 -35.782785905091444 -6.818828676492722 3.1290717101279517 1.9817062371681546 -1.5050799359175069 4.34301872813609 13.667865731489469 -0.0000024018115923695183 -9.648332215075601e-7 -0.0000022436391985057194 -1.133400714655601 -11.51895883494519 59.755785557953715 11.794335889121767 -5.959210218559668 36.3110890703141 1.6628260911929426e-9 -3.1805543023118527e-15 -2.179830267765673e-11 -4.70429261298275 -2.656036734227616 17.223767733346303 0.6500847474525224 -0.123493397606369 15.030779223415324 1.215836204053751e-9 -3.180554491887685e-15 -1.6036856771618462e-11 2.0507478833919146 -0.5533191836919893 32.87788642481845 7.297874112924333 -3.6550280170374427 29.531705303359136 0.0000037456043928410843 3.109729835372313e-7 0.0000036715802140735772 -3.761210171924895 14.943461302449121 2.6607761979235125 -4.147393691314744 -2.573767879710775 -0.16401670083638722 0.000004729118614992434 0.0000031691022419442544 -0.000002131869519889351 4.626275969251789 -14.773724376635101 -1.294197966198085 -0.0009041082219829298 11.179519960048186 -0.3993315847269648 11.262767471077833 -1.88241646707251 1.1761849610520854 -0.025961141561590982 -0.22290241179470113 0.06355645035719798 0.26289058740068844 -13.37089432721521 -0.7552651485800016 0.042427797442878105 10.664864795082407 0.40438952766352476 1.6982224805862067 -2.49815427752097 0.6966868118072792 -0.10624283399311402 -0.012206993884769255 0.26332292836045584
0.3131175935268402 -0.07865119111537311 -0.8827130794525146 -4.862353019747683 5.117966235450459 -0.42247630622671073 1.0152641356655705 1.4783969138737107 0.40411498675446467 4.090488257743575 5.877415157828215 1.54599780057939 0 0 0 0.42201033952917055 -5.9509914099970755 -0.7120522233451619 -5.138430586214819 2.819755051655297 -0.4777688167753921 0 0 0 0 0 0 -11.459326834545973 -0.7108660665073029 -18.941853341083505 -54.782493838817494 -30.86917786139615 -16.387131724169436 -110.64740198536053 -4.253345678003881 8.07302794007516 9.632399300689933 -9.587499113308212 28.034288004962747 1.4403271304258158 4.442822675945292 -11.321238761949502 6.743377759527922 2.8987444255442485 -16.71020062754337 8.148288482878835e-7 -1.5337981956980147e-7 -0.0000015517772606458285 10.18094685702118 -4.049356959789414 -31.097363142367897 -5.817466297219242 -0.6601687188506691 -22.445965187822562 0.000010842474879785569 0.000020794444930525973 -0.000013159829666921278 5.618691748890978 1.664040152414624 -14.38111869547809 -1.208108077980339 -0.2762273670178297 -18.008672139684908 1.139979627027678e-10 6.3611093629270335e-15 -1.43444452663829e-12 9.700857430497432 1.4915924686794237 -21.976737752026757 -2.690172418043597 -0.4298262085954288 -22.46521625577493 -0.00000412555579597696 -0.000009862134494984367 -7.112917174090152e-7 2.007730334686726 7.754654850593744 -1.4738563815581756 4.5444411942765415 1.821837963965105 2.08342757379988 0.0000029659611813277985 0.0000036354096231252345 3.6447062572369624e-7 13.589982896577238 -0.6441089433094511 14.370054204399192 45.99449618777015 -34.444404187924555 17.46482985835578 109.71295626703113 -4.29616201089524 -7.989344690651438 5.623070270594722 -22.261726274550313 -36.20147360275187 -6.81883971349617 3.1290505476793755 1.9817128598301348 -1.505070306627888 4.343015303207025 13.667852442422543 -0.0000024018115923695183 -9.648332215075601e-7 -0.0000022436391985057194 -1.1333941810096324 -11.51896319156145 59.75577778066377 11.79438281644748 -5.9593531442523116 36.311783901026566 1.6628260911929426e-9 -3.1805543023118527e-15 -2.179830267765673e-11 -4.704277706262361 -2.6560326744414797 17.223739585084218 0.6501102523577692 -0.12353385856708697 15.03120753989 1.215836204053751e-9 -3.180554491887685e-15 -1.6036856771618462e-11 2.0507493766084646 -0.5533105388307105 32.877849486911835 7.297924634855098 -3.6550990246850787 29.532229698109926 0.0000037456043928410843 3.109729835372313e-7 0.0000036715802140735772 -3.7611850190550102 14.943436560018066 2.660771456222069 -4.1474135437004245 -2.5737589060351813 -0.16399462728715555 0.000004729118614992434 0.0000031691022419442544 -0.000002131869519889351 4.749860728483704 -14.679287129944518 -1.188480904086122 -0.0010636099261751718 10.950388281596158 -0.3910640378926877 10.976063715060521 -1.6629066103551478 1.125812743101525 -0.02599847789762273 -0.23428019680092627 0.06358753964045719 0.18268100200834772 -13.224125479804918 -0.6077767395804895 0.03953721576448326 10.395258166701415 0.39269134919640575 1.6112067812277224 -2.3062873528124412 0.5975235144446492 -0.10627511725387968 0.0059193081658928835 0.2633251537973696
0.28432440757751465 -0.07487845551966998 -0.9018098711967468 -4.611345024442452 4.992890173810319 -0.44929525567651823 0.9988819364858708 1.3736784770325055 0.4147169967492543 4.018856025604102 5.45891516307707 1.560667043638541 0 0 0 0.37490547841564975 -6.093796300287023 -0.8649191765058211 -5.41625908624597 2.605376336347728 -0.3463428243529957 0 0 0 0 0 0 -11.461312905385807 -0.7136345881053255 -18.975950045925572 -53.78359880557429 -30.291057502152455 -16.769730561843406 -110.54394708181034 -4.258029159921562 8.06670984176447 8.51643503781762 -10.02144116482696 27.564817610405292 3.0555261791958497 4.950455490425579 -11.188290105377538 6.74338157981887 2.898749982182873 -16.71020488581744 8.148288482878835e-7 -1.5337981956980147e-7 -0.0000015517772606458285 10.248222317421684 -4.005994275292466 -32.090947386692534 -5.817505292594707 -0.660156818590563 -22.445965187822562 0.000010842474879785569 0.000020794444930525973 -0.000013159829666921278 6.926246568088139 2.15567419723572 -14.472733254033235 -1.3828737123693389 -0.33613095843714935 -19.92560441742977 1.139979627027678e-10 6.3611093629270335e-15 -1.43444452663829e-12 10.142972043449262 1.7296131124477427 -22.907434656770636 -2.7270208048007896 -0.445291088341194 -22.869670382558404 -0.00000412555579597696 -0.000009862134494984367 -7.112917174090152e-7 4.051544495993467 9.077735595266464 -0.877014570201104 4.544439065476569 1.8218400994786905 2.0833992794378133 0.0000029659611813277985 0.0000036354096231252345 3.6447062572369624e-7 13.548501051948218 -0.6172128035715062 14.127029321822118 45.273648497061096 -33.71222608172814 18.541350585494595 109.5413838150431 -4.304084279856304 -7.9760800841233115 6.923657478107732 -21.33512918115466 -37.14671813621517 -6.818822308990502 3.1290823982334555 1.9817272915981325 -1.505100157425429 4.342984478846134 13.667865754187268 -0.0000024018115923695183 -9.648332215075601e-7 -0.0000022436391985057194 -1.1334184643936673 -11.518968419501054 59.75579935703883 11.794538160374653 -5.959661314491017 36.31315712969698 1.6628260911929426e-9 -3.1805543023118527e-15 -2.179830267765673e-11 -4.704302408827229 -2.656037375246481 17.223770998800987 0.6501698527315777 -0.1235272151254614 15.032055804954476 1.215836204053751e-9 -3.180554491887685e-15 -1.6036856771618462e-11 2.0507412705757297 -0.5533223321291248 32.87789873745413 7.297987471662246 -3.6552093859799117 29.533299726148723 0.0000037456043928410843 3.109729835372313e-7 0.0000036715802140735772 -3.7612004726198025 14.943461302449121 2.6607850249797917 -4.147391560320448 -2.5737460864987285 -0.16399740484205247 0.000004729118614992434 0.0000031691022419442544 -0.000002131869519889351 4.86318231117246 -14.518698367227211 -0.9762478002084071 -0.0023175254226534274 10.603581962151955 -0.3786603638350086 10.576746385891914 -1.3155334986951257 1.0026541143138363 -0.025991172521360642 -0.23371093847496263 0.06358743579794322 -0.08283303279015025 -12.975479250471587 -0.3263067331263279 0.034212680747773234 9.993160799920041 0.3750216697067106 1.5853671139170085 -2.0202431972218005 0.3948526910249896 -0.10624396123920386 -0.012197338905230387 0.26332319516191566
0.25661352276802063 -0.07242941987513873 -0.9152061343193054 -4.390686476454738 4.893172060146426 -0.4330103400085953 0.9905505427654393 1.277967868657345 0.3974898871542581 3.9803315485360606 5.078116228460287 1.4876025760997726 0 0 0 0.318192508216639 -6.353072370191851 -0.970271235371068 -5.770227306479269 2.4161986081539926 -0.19562849829844586 0 0 0 0 0 0 -11.477835879404491 -0.7210063273244499 -19.03969821988857 -53.56877700405244 -29.609384098492267 -17.197229933944627 -110.2939044182796 -4.269304991846778 8.046456938959016 8.620865953530314 -9.206548317563998 27.957406086922422 5.002228418694905 5.547317226061311 -11.010369079102865 6.7433705663767265 2.8987316025321426 -16.71024877380548 8.148288482878835e-7 -1.5337981956980147e-7 -0.0000015517772606458285 10.332736727526955 -3.9363520848247915 -33.11354453277598 -5.817500195997218 -0.6601684520286932 -22.445974383274812 0.000010842474879785569 0.000020794444930525973 -0.000013159829666921278 8.497212251100992 2.7489010365137987 -14.567957398533267 -1.5661499233516636 -0.4060825318040024 -21.96107131176634 1.139979627027678e-10 6.3611093629270335e-15 -1.43444452663829e-12 10.66464704333364 2.0361794745969233 -24.0219021167735 -2.7550826344173633 -0.4572822309299937 -23.178162585289233 -0.00000412555579597696 -0.000009862134494984367 -7.112917174090152e-7 6.5697472222759705 10.616354212812263 -0.14517658653063198 4.544420061314779 1.8218027279913112 2.0833962916951365 0.0000029659611813277985 0.0000036354096231252345 3.6447062572369624e-7 13.499365029177643 -0.5917971086717245 13.906972274791807 44.360568826086784 -33.04179820108684 19.888894894758295 109.43366286540427 -4.309605858108185 -7.968397963115426 8.236747772420646 -21.1317356708204 -38.22457551256238 -6.818821035490037 3.129089024858923 1.9817187462274641 -1.505090528135989 4.342994325516837 13.667844145267956 -0.0000024018115923695183 -9.648332215075601e-7 -0.0000022436391985057194 -1.133391131974837 -11.51895883494519 59.75579484069248 11.794668711102648 -5.959958754732306 36.31453035983004 1.6628260911929426e-9 -3.1805543023118527e-15 -2.179830267765673e-11 -4.704299001577007 -2.6560386572842116 17.223776909294955 0.6502410316900391 -0.12351551573127742 15.032904955762682 1.215836204053751e-9 -3.180554491887685e-15 -1.6036856771618462e-11 2.050743403742247 -0.553304775589865 32.87786938998068 7.298081313021901 -3.6553800610323823 29.534368463954493 0.0000037456043928410843 3.109729835372313e-7 0.0000036715802140735772 -3.761213258067379 14.94346306976573 2.6607530834910955 -4.147394969911318 -2.5737454455219093 -0.1639907013201365 0.000004729118614992434 0.0000031691022419442544 -0.000002131869519889351 4.962273245586803 -14.375909218500134 -0.818739138340958 -0.004939707787766117 10.321970184966052 -0.3680779567852582 10.236204195370593 -1.040908504669623 0.8734128050265153 -0.025902525525249378 -0.20077863738802804 0.0634965816138403 -0.32406521907594593 -12.822867288059289 -0.11215404218218976 0.02863704702546155 9.796243992269895 0.3666175016861034 1.5815679243961742 -1.868989017925835 0.19878483773815903 -0.1062437744765381 -0.012197339738993732 0.26332274159943403
